<?xml version="1.0" standalone="no"?>
<!DOCTYPE svg PUBLIC "-//W3C//DTD SVG 20010904//EN"
 "http://www.w3.org/TR/2001/REC-SVG-20010904/DTD/svg10.dtd">
<svg version="1.0" xmlns="http://www.w3.org/2000/svg"
 width="512.000000pt" height="512.000000pt" viewBox="0 0 512.000000 512.000000"
 preserveAspectRatio="xMidYMid meet">
<metadata>
Created by potrace 1.16, written by Peter Selinger 2001-2019
</metadata>
<g transform="translate(0.000000,512.000000) scale(0.100000,-0.100000)"
fill="#000000" stroke="none">
<path d="M4433 4750 c-35 -14 -40 -38 -32 -175 3 -71 6 -131 5 -132 -7 -8
-198 130 -242 174 -23 23 -92 34 -79 13 3 -6 -5 -14 -18 -19 -31 -12 -36 -26
-24 -74 8 -31 17 -40 54 -57 24 -10 50 -26 59 -35 8 -8 21 -15 28 -15 8 0 19
-7 26 -15 7 -8 23 -15 36 -15 24 0 40 -15 25 -24 -22 -14 -180 -33 -190 -23
-8 8 -11 8 -11 0 0 -10 -38 -21 -103 -29 -15 -2 -38 -9 -50 -16 -12 -6 -23
-11 -24 -10 -2 1 -4 2 -5 1 -2 0 -19 -2 -38 -5 -19 -2 -36 -9 -38 -14 -2 -6
-20 -10 -40 -10 -20 0 -49 -6 -64 -14 -14 -8 -44 -17 -66 -21 -22 -3 -48 -13
-59 -20 -10 -8 -30 -15 -46 -15 -15 0 -35 -4 -45 -9 -32 -16 -67 -29 -157 -56
-49 -16 -98 -35 -107 -42 -9 -8 -22 -12 -27 -8 -6 3 -11 1 -11 -4 0 -6 -7 -11
-15 -11 -9 0 -18 -6 -21 -14 -3 -8 -21 -17 -41 -21 -19 -3 -45 -15 -56 -26
-11 -10 -30 -19 -42 -19 -12 0 -40 -13 -62 -29 -23 -16 -43 -28 -45 -25 -3 2
-13 -5 -23 -16 -10 -11 -28 -20 -40 -20 -11 0 -26 -5 -32 -11 -9 -9 -14 -5
-18 17 -4 16 -9 38 -12 49 -3 11 -5 20 -3 20 2 0 -2 10 -9 23 -7 13 -14 31
-16 40 -8 38 -42 102 -61 114 -6 4 -17 21 -24 37 -7 17 -20 33 -29 36 -9 3
-32 20 -51 38 -63 59 -133 92 -220 103 -63 8 -204 4 -214 -6 -5 -5 -18 -10
-28 -10 -26 0 -124 -45 -150 -69 -12 -12 -25 -21 -30 -21 -27 0 -136 -169
-123 -190 3 -6 -1 -10 -10 -10 -11 0 -16 -7 -14 -22 2 -13 -1 -49 -5 -81 -9
-72 21 -217 45 -217 5 0 9 -6 9 -14 0 -7 6 -19 14 -26 8 -6 16 -24 18 -38 2
-19 10 -28 26 -30 15 -2 22 -10 22 -26 0 -23 32 -61 43 -50 3 3 10 -4 17 -15
6 -12 16 -21 22 -21 6 0 34 -11 63 -25 29 -14 80 -29 115 -33 64 -7 92 -28 52
-39 -11 -2 -22 -13 -25 -24 -3 -10 -12 -19 -20 -19 -8 0 -17 -9 -20 -20 -3
-11 -12 -20 -21 -20 -9 0 -16 -5 -16 -10 0 -6 -17 -28 -37 -48 -21 -21 -47
-51 -58 -67 -11 -16 -34 -42 -52 -58 -18 -17 -35 -43 -38 -58 -4 -16 -11 -29
-16 -29 -5 0 -9 -8 -9 -19 0 -10 -9 -21 -20 -24 -13 -3 -20 -14 -20 -31 0 -15
-8 -30 -20 -36 -11 -6 -20 -17 -20 -25 0 -8 -5 -15 -11 -15 -5 0 -7 -4 -4 -10
3 -5 2 -10 -4 -10 -10 0 -34 -38 -47 -72 -3 -10 -12 -18 -18 -18 -14 0 -38
-68 -30 -82 3 -4 0 -8 -5 -8 -6 0 -11 -6 -11 -14 0 -7 -10 -26 -22 -41 -12
-15 -22 -35 -23 -44 -1 -9 -5 -23 -8 -31 -3 -8 -11 -32 -17 -53 -7 -21 -18
-41 -26 -44 -8 -3 -14 -19 -14 -35 0 -39 -21 -109 -31 -103 -4 3 -10 -23 -14
-58 -4 -34 -12 -73 -17 -87 -22 -55 -39 -136 -33 -157 3 -13 1 -23 -5 -23 -14
0 -7 -187 9 -225 9 -22 9 -34 1 -51 -7 -13 -9 -32 -5 -45 5 -13 9 -38 10 -55
1 -17 9 -45 18 -63 9 -17 13 -39 10 -47 -3 -8 2 -25 10 -38 10 -15 12 -27 6
-33 -11 -11 8 -73 22 -73 5 0 9 -13 9 -28 0 -16 7 -37 15 -48 8 -10 15 -27 15
-36 0 -10 4 -18 10 -18 5 0 16 -16 24 -35 8 -19 20 -35 25 -35 6 0 11 -7 11
-15 0 -8 11 -28 24 -43 60 -67 69 -78 77 -100 5 -12 16 -22 24 -22 9 0 14 -4
11 -9 -3 -5 11 -24 32 -42 20 -18 36 -37 35 -41 -2 -4 4 -8 13 -8 9 0 25 -11
36 -25 11 -14 26 -25 34 -25 8 0 14 -4 14 -10 0 -5 -6 -10 -14 -10 -7 0 -19
-6 -25 -14 -8 -10 -23 -13 -45 -9 -19 3 -44 -1 -57 -8 -13 -7 -32 -12 -41 -11
-9 2 -36 -2 -60 -9 -24 -6 -61 -13 -83 -15 -22 -2 -62 -6 -90 -9 -27 -3 -70
-5 -95 -4 -160 3 -190 4 -190 10 0 4 -19 10 -43 14 -67 12 -68 13 -88 30 -10
10 -25 15 -33 12 -8 -3 -22 3 -32 14 -9 10 -21 19 -26 19 -13 0 -128 119 -128
131 0 6 -10 20 -23 32 -12 12 -23 33 -24 47 -3 43 -15 90 -22 90 -4 0 -7 8 -8
18 -6 115 -8 131 -17 122 -6 -6 -14 -10 -18 -10 -11 0 -10 57 1 64 11 7 19 76
26 231 4 72 8 136 10 143 3 7 0 23 -5 36 -5 15 -5 26 0 28 10 3 14 166 6 228
-10 80 -19 121 -27 126 -5 3 -9 17 -9 32 0 15 -7 38 -15 52 -8 14 -27 51 -44
82 -29 56 -53 88 -67 88 -4 0 -19 13 -35 29 -15 17 -37 35 -48 41 -12 6 -21
17 -21 25 0 8 -9 15 -20 15 -11 0 -20 5 -20 11 0 5 -4 8 -8 5 -5 -3 -30 6 -57
19 -27 14 -59 25 -72 25 -13 0 -23 4 -23 8 0 4 -33 9 -72 10 -120 2 -231 -40
-215 -81 4 -12 22 -14 83 -10 79 5 178 -10 224 -34 14 -7 29 -13 33 -13 5 0
36 -20 68 -45 33 -25 63 -45 67 -45 12 0 61 -77 68 -106 4 -13 18 -37 33 -53
27 -28 52 -123 51 -191 0 -13 5 -51 11 -84 8 -46 8 -61 -3 -67 -7 -4 -10 -11
-6 -14 3 -3 -2 -41 -12 -84 -12 -54 -14 -84 -8 -96 7 -12 6 -25 -2 -40 -8 -15
-11 -42 -7 -72 3 -26 1 -56 -4 -65 -6 -11 -5 -51 1 -105 6 -54 6 -91 0 -97 -5
-5 -5 -16 -1 -25 5 -9 14 -47 20 -85 6 -40 16 -73 24 -78 8 -4 18 -28 21 -53
4 -25 11 -45 16 -45 5 0 7 -6 5 -13 -3 -7 8 -27 25 -45 16 -18 30 -37 30 -43
0 -5 0 -12 0 -16 1 -15 64 -73 80 -73 8 0 21 -14 28 -30 8 -18 21 -30 32 -30
10 0 21 -4 25 -10 3 -5 12 -7 20 -4 7 3 24 -5 37 -18 12 -12 27 -23 33 -24 5
0 15 -2 22 -2 7 -1 10 -9 6 -17 -4 -13 2 -15 28 -14 48 3 143 -12 150 -23 13
-20 398 -10 438 11 11 6 40 11 65 11 25 0 47 4 50 8 3 5 19 9 35 10 16 0 48
12 70 26 22 14 43 26 46 26 4 0 27 9 52 21 l45 20 19 -20 c11 -12 26 -21 33
-21 7 0 24 -8 37 -19 13 -10 30 -16 37 -13 7 2 19 -4 26 -13 7 -10 30 -20 52
-22 21 -2 41 -7 44 -12 11 -17 79 -32 145 -32 10 0 24 -4 30 -8 5 -4 44 -13
85 -20 41 -7 86 -15 100 -18 36 -7 110 -4 128 6 13 7 52 1 102 -17 28 -10 40
-10 45 -2 4 7 91 5 135 -3 3 0 21 3 40 8 51 12 99 14 350 14 124 0 245 -5 270
-11 25 -6 52 -12 60 -13 8 -1 23 -6 33 -10 11 -5 24 -2 36 9 10 9 21 16 26 16
29 0 38 74 13 107 -14 18 -107 42 -158 42 -57 -1 -121 10 -137 23 -9 7 -13 7
-13 1 0 -7 -39 -9 -100 -8 -55 1 -103 -1 -106 -6 -3 -5 -14 -9 -25 -9 -26 0
-22 29 6 44 11 6 23 15 26 19 3 5 8 8 10 8 13 -2 49 13 49 19 0 9 28 20 44 19
5 0 13 6 18 15 5 9 15 16 22 16 7 0 25 12 39 26 16 15 33 24 42 20 8 -3 15 0
15 7 0 7 19 31 43 53 46 45 58 59 102 119 16 22 39 51 51 65 24 28 33 60 53
195 10 71 10 79 -4 150 -30 153 -198 295 -367 310 -27 2 -53 7 -59 11 -5 3
-15 2 -22 -4 -7 -5 -28 -9 -47 -10 -47 -2 -102 -8 -120 -15 -8 -3 -33 -8 -55
-10 -96 -13 -229 -47 -237 -62 -5 -8 -19 -15 -30 -15 -21 0 -95 -44 -110 -65
-11 -15 -9 -47 2 -40 6 3 10 2 10 -4 0 -6 11 -18 25 -27 22 -15 28 -15 77 1
29 10 59 22 66 28 6 5 12 6 12 2 0 -4 6 -3 13 3 7 6 29 12 48 13 63 3 147 19
180 36 19 10 34 12 36 7 2 -7 28 -7 70 -2 37 4 84 6 105 3 21 -3 57 -7 80 -10
23 -3 47 -10 52 -15 6 -6 18 -10 27 -10 9 0 22 -7 29 -15 7 -8 15 -13 19 -11
4 3 18 -16 32 -42 13 -26 27 -49 31 -52 4 -3 5 -59 3 -125 -2 -95 -6 -121 -19
-130 -9 -7 -16 -22 -16 -33 0 -12 -10 -26 -21 -33 -25 -13 -66 -57 -74 -79 -3
-8 -22 -26 -42 -40 -20 -14 -46 -33 -57 -42 -12 -10 -34 -29 -51 -43 -40 -34
-225 -125 -252 -125 -12 0 -37 -9 -55 -19 -18 -11 -62 -27 -98 -36 -36 -9 -74
-21 -84 -27 -11 -5 -40 -13 -65 -17 -31 -4 -49 -12 -56 -26 -8 -16 -16 -19
-40 -14 -16 4 -66 4 -111 1 -61 -3 -92 -1 -125 12 -24 9 -53 16 -64 15 -37 0
-120 14 -125 22 -3 5 -21 9 -39 11 -18 1 -35 6 -37 10 -3 4 -14 8 -25 8 -10 0
-19 5 -19 10 0 6 -11 10 -25 10 -14 0 -25 5 -25 11 0 5 -4 8 -9 4 -5 -3 -15 1
-23 8 -7 7 -39 26 -70 42 -32 17 -58 36 -58 44 0 8 -3 12 -6 8 -13 -13 -224
167 -224 191 0 5 -9 12 -21 15 -12 3 -18 10 -15 16 3 5 -5 18 -19 29 -17 13
-21 22 -13 24 8 3 5 9 -10 17 -12 6 -22 17 -22 23 0 6 -8 17 -18 24 -12 10
-13 13 -3 14 11 0 10 4 -3 19 -10 11 -15 24 -12 30 4 5 -3 13 -14 16 -12 4
-19 12 -17 18 2 7 -3 20 -11 30 -20 23 -24 48 -10 64 8 10 6 13 -6 13 -9 0
-16 2 -16 3 0 2 -9 39 -20 81 -16 64 -20 110 -19 259 0 210 1 220 16 267 7 19
14 62 17 95 6 78 16 125 27 125 5 0 9 8 9 18 1 9 9 35 20 57 11 22 19 46 20
54 0 7 10 32 21 55 37 72 39 76 39 86 0 18 53 130 62 130 4 0 8 7 8 15 0 17
41 99 52 103 4 2 8 10 8 17 0 8 9 19 20 25 11 6 20 18 20 26 0 14 22 50 52 89
12 14 50 75 72 114 10 18 36 49 57 68 22 20 39 41 39 49 0 7 17 25 38 41 43
31 92 81 92 92 0 12 33 38 56 43 21 5 26 -14 12 -38 -4 -6 0 -23 8 -38 7 -16
14 -35 14 -42 0 -8 6 -14 14 -14 8 0 18 -9 21 -20 3 -11 13 -20 21 -20 8 0 17
-7 20 -15 4 -8 15 -15 26 -15 11 0 27 -9 37 -21 11 -14 33 -23 64 -26 26 -3
50 -10 53 -14 4 -7 69 13 80 24 1 1 5 18 9 38 6 32 3 38 -21 54 -15 10 -35 19
-43 20 -62 7 -101 19 -101 31 0 8 -9 14 -20 14 -11 0 -20 7 -20 15 0 8 -5 14
-12 13 -16 -4 -38 41 -38 80 0 35 56 131 78 131 6 1 12 8 12 16 0 8 4 15 9 15
5 0 22 11 37 25 42 35 160 122 186 136 13 7 29 18 36 26 7 7 22 13 33 13 10 0
19 4 19 8 0 9 70 45 110 57 14 4 36 16 49 26 13 11 41 24 62 29 22 6 39 17 39
24 0 8 20 19 47 26 26 6 50 16 54 21 3 5 19 11 36 13 17 2 44 11 59 18 16 8
57 23 92 33 34 10 62 22 62 27 0 4 7 8 16 8 16 0 105 26 139 40 11 5 39 12 63
15 23 4 42 11 42 16 0 5 15 9 33 9 19 0 37 3 41 7 8 8 8 8 111 23 44 6 88 16
98 21 10 6 45 12 78 14 53 4 59 3 59 -14 0 -11 -16 -36 -35 -57 -19 -20 -35
-40 -35 -44 0 -5 -11 -18 -25 -31 -13 -13 -25 -32 -25 -41 0 -10 -4 -18 -10
-18 -5 0 -10 -13 -10 -29 0 -20 -6 -30 -20 -34 -12 -3 -20 -14 -20 -26 0 -12
-7 -24 -15 -27 -8 -4 -15 -17 -15 -30 0 -14 -6 -24 -14 -24 -10 0 -16 -18 -21
-59 -7 -64 5 -104 29 -95 8 3 17 1 21 -5 15 -25 80 30 91 76 4 15 10 33 15 38
4 6 29 51 55 100 26 49 52 95 58 102 26 30 36 43 36 48 0 9 53 86 56 82 4 -3
1 -14 -41 -139 -15 -43 -24 -82 -21 -87 4 -5 2 -11 -3 -13 -6 -1 -12 -16 -15
-33 -2 -16 -5 -30 -6 -30 -1 0 -3 -14 -5 -32 -1 -17 -10 -46 -19 -64 -9 -17
-16 -43 -16 -56 0 -12 -4 -23 -8 -23 -4 0 -8 -8 -9 -17 -3 -48 -15 -98 -23
-101 -6 -2 -10 -19 -10 -37 0 -20 -6 -35 -15 -39 -8 -3 -15 -13 -15 -23 0 -22
-46 -151 -60 -167 -5 -7 -12 -31 -16 -54 -4 -23 -12 -42 -18 -42 -6 0 -17 -23
-24 -52 -6 -28 -17 -55 -23 -59 -6 -3 -11 -10 -11 -15 -1 -11 -7 -33 -18 -59
-5 -11 -11 -31 -15 -45 -30 -122 -58 -217 -67 -227 -6 -7 -8 -28 -6 -47 3 -24
0 -32 -9 -29 -9 4 -13 -6 -13 -30 0 -20 -4 -39 -10 -42 -5 -3 -10 -19 -10 -35
0 -16 -4 -32 -10 -35 -5 -3 -10 -28 -10 -55 0 -26 -4 -50 -8 -52 -4 -1 -14
-43 -22 -92 l-15 -88 -60 -18 c-33 -10 -89 -23 -125 -29 -145 -24 -219 -40
-251 -54 -19 -9 -53 -21 -76 -27 -54 -14 -69 -39 -48 -79 16 -33 40 -40 99
-30 21 4 51 3 66 -1 15 -4 34 -4 41 1 14 9 277 3 339 -7 29 -5 31 -7 17 -15
-13 -8 -15 -14 -7 -29 6 -11 10 -45 9 -77 -2 -37 2 -58 10 -61 7 -2 17 -15 22
-29 7 -19 15 -24 36 -21 51 6 87 88 71 162 -5 21 -7 40 -5 43 8 7 52 7 102 -1
219 -33 197 -34 237 13 26 30 34 48 30 66 -6 31 -63 66 -111 66 -20 0 -72 1
-116 3 -44 1 -87 -1 -96 -5 -13 -6 -18 -3 -23 14 -7 29 -1 34 74 47 36 7 72
15 80 17 8 2 43 6 77 8 57 3 88 16 156 66 4 3 10 22 13 41 4 36 -4 49 -40 62
-14 5 -17 2 -12 -9 3 -9 0 -15 -10 -15 -8 0 -12 4 -9 10 8 13 -60 13 -83 1 -9
-5 -33 -12 -53 -15 -19 -3 -62 -12 -94 -21 -88 -22 -102 -20 -107 14 -2 17 -1
28 4 25 4 -3 8 4 8 16 0 12 7 28 15 36 8 8 12 21 9 29 -4 8 -1 15 5 15 6 0 10
3 9 8 -5 18 14 102 24 102 6 0 8 9 5 21 -3 11 1 35 8 52 7 18 11 44 8 58 -3
15 1 32 10 40 7 8 17 30 21 50 3 19 15 53 26 74 11 21 18 50 15 64 -2 14 3 36
12 51 10 14 16 30 15 36 -1 6 5 17 13 24 8 7 15 21 15 32 0 10 7 21 16 25 8 3
14 15 12 27 -1 12 5 32 14 45 10 13 15 28 12 33 -3 5 -1 14 4 21 11 14 26 68
23 81 -1 4 2 13 7 20 5 6 12 28 16 49 4 21 14 41 22 44 11 4 13 14 9 33 -4 18
-1 33 9 43 9 9 16 23 16 31 0 9 5 16 10 16 6 0 10 9 10 19 0 11 5 23 10 26 6
4 8 10 5 15 -3 5 3 23 14 41 11 17 17 37 15 44 -3 7 -1 16 5 20 6 3 11 19 11
36 0 16 4 29 10 29 5 0 10 15 9 33 -1 34 19 126 31 142 4 6 13 39 20 75 l14
65 17 -105 c10 -58 18 -122 18 -142 1 -20 5 -39 10 -42 5 -3 12 -23 16 -43 4
-21 11 -44 17 -50 16 -20 62 -15 87 8 21 20 23 28 18 107 -3 48 -9 88 -14 89
-5 2 -8 22 -6 45 2 22 -1 46 -6 52 -5 6 -8 23 -6 39 2 15 0 27 -4 27 -4 0 -8
16 -9 36 -2 20 -7 45 -12 54 -5 10 -7 20 -4 23 3 3 1 21 -4 41 -9 32 -8 36 9
36 10 0 19 -5 19 -11 0 -6 5 -9 12 -7 7 3 24 -8 38 -23 14 -15 55 -41 92 -59
38 -18 65 -36 62 -41 -3 -5 6 -9 20 -9 14 0 26 -4 26 -9 0 -5 14 -14 31 -20
39 -14 49 -14 49 -1 0 6 9 19 20 30 33 33 25 59 -32 106 -8 6 -26 14 -41 18
-15 3 -27 13 -27 21 0 14 -100 85 -121 85 -5 0 -23 10 -39 22 -16 12 -41 22
-56 24 -14 2 -34 9 -43 17 -9 8 -23 16 -31 19 -8 3 -16 16 -16 29 -4 67 -15
168 -23 201 -5 23 -5 40 2 47 11 11 -6 63 -27 79 -19 16 -50 21 -73 12z m-36
-522 c-3 -8 -6 -5 -6 6 -1 11 2 17 5 13 3 -3 4 -12 1 -19z m-2067 -1 c66 -10
190 -60 190 -77 0 -5 10 -19 23 -32 78 -80 143 -249 116 -300 -20 -37 -70 -86
-100 -98 -16 -7 -29 -19 -29 -26 0 -8 -5 -14 -11 -14 -6 0 -33 -22 -61 -50
l-50 -50 -81 -1 c-82 -2 -147 10 -201 38 -57 30 -166 158 -166 197 0 7 -6 25
-13 39 -8 14 -12 43 -10 64 5 42 5 51 2 73 -4 23 12 80 22 80 5 0 9 6 9 14 0
8 14 25 31 38 17 13 40 32 52 44 12 11 31 23 42 27 11 3 42 14 69 24 58 22 82
23 166 10z m-1613 -1919 c-3 -7 -5 -2 -5 12 0 14 2 19 5 13 2 -7 2 -19 0 -25z
m3568 -48 c-3 -5 -12 -10 -18 -10 -7 0 -6 4 3 10 19 12 23 12 15 0z m-2268
-1486 c-3 -3 -12 -4 -19 -1 -8 3 -5 6 6 6 11 1 17 -2 13 -5z m1118 -44 c-3 -5
-11 -10 -16 -10 -6 0 -7 5 -4 10 3 6 11 10 16 10 6 0 7 -4 4 -10z"/>
<path d="M3425 3731 c-23 -13 -48 -34 -54 -47 -6 -13 -15 -24 -20 -24 -5 0
-13 -24 -16 -54 -5 -40 -3 -61 9 -82 8 -16 18 -37 22 -46 3 -10 15 -18 25 -18
11 0 18 -5 17 -11 -2 -6 15 -18 37 -25 55 -20 106 -10 139 27 14 16 30 29 35
29 10 0 26 45 36 103 5 30 0 47 -22 88 -24 42 -32 49 -50 44 -13 -3 -23 -1
-23 6 0 42 -67 47 -135 10z"/>
<path d="M1506 1777 c3 -10 9 -15 12 -12 3 3 0 11 -7 18 -10 9 -11 8 -5 -6z"/>
</g>
</svg>
